<?xml version="1.0" encoding="UTF-8" standalone="no"?>
<!-- Created with Inkscape (http://www.inkscape.org/) -->

<svg
   id="svg1"
   version="1.1"
   viewBox="0 0 999.99997 299.99999"
   xml:space="preserve"
   sodipodi:docname="logo.svg"
   width="1000"
   height="300"
   inkscape:version="1.4 (e7c3feb1, 2024-10-09)"
   xmlns:inkscape="http://www.inkscape.org/namespaces/inkscape"
   xmlns:sodipodi="http://sodipodi.sourceforge.net/DTD/sodipodi-0.dtd"
   xmlns="http://www.w3.org/2000/svg"
   xmlns:svg="http://www.w3.org/2000/svg"><defs
     id="defs1" /><sodipodi:namedview
     id="namedview1"
     pagecolor="#ffffff"
     bordercolor="#000000"
     borderopacity="0.25"
     inkscape:showpageshadow="2"
     inkscape:pageopacity="0.0"
     inkscape:pagecheckerboard="0"
     inkscape:deskcolor="#d1d1d1"
     showguides="true"
     inkscape:zoom="0.70944435"
     inkscape:cx="493.34384"
     inkscape:cy="119.81208"
     inkscape:window-width="1512"
     inkscape:window-height="921"
     inkscape:window-x="530"
     inkscape:window-y="1141"
     inkscape:window-maximized="0"
     inkscape:current-layer="svg1"><sodipodi:guide
       position="1012.0573,216.96944"
       orientation="0,-1"
       id="guide1"
       inkscape:locked="false" /></sodipodi:namedview><g
     id="g1"
     transform="translate(9.4512,-10)"
     fill="#ff0077"
     fill-opacity="0.99216"
     stroke-linecap="round"
     stroke-miterlimit="42.7"><path
       id="path1"
       d="m 142.54,10 -23.814,1.3086 -8.8477,11.059 -1.9394,20.957 7.4844,66.514 -12.984,25.76 -14.512,-1.0938 -13.461,-23.66 -44.529,-6.6289 -14.861,12.057 -15.074,12.229 v 65.398 h 51.412 l 97.74,52.703 84.406,-16.816 22.375,-46.725 v -73.57 l -17.857,-42.268 -1.3633,-12.277 -1.748,-15.732 -11.852,-13.586 -29.635,2.6426 -4.2559,11.818 -3.543,9.8398 6.8242,18.875 6.0039,49.445 -5.4355,25.646 -18.787,-2.3066 -10.621,-55.838 -9.084,-36.172 2.7129,-12.768 -2.2305,-19.41 z m -3.7598,15.396 2.0762,1.2266 1.0879,9.459 -2.9277,13.781 9.832,39.154 12.605,66.277 43.574,5.3457 8.8418,-41.717 -6.5176,-53.658 -5.5488,-15.348 1.6895,-4.6914 0.97656,-2.7109 12.295,-1.0957 3.6504,4.1855 1.2246,11.016 1.6074,14.471 17.521,41.471 v 67.055 l -17.613,36.777 -71.609,14.266 -96.305,-51.928 h -40.074 v -43.006 l 9.4629,-7.6777 9.6777,-7.8496 30.625,4.5586 13.805,24.262 32.676,2.4648 19.588,-38.854 -7.8184,-69.457 1.3789,-14.881 1.7695,-2.2129 z"
       style="paint-order:stroke markers fill" /><path
       id="text2"
       d="m 317.48,127.94 v 33.786 h 39.943 v 13.545 H 317.48 v 45.33 h -17.855 v -106.21 h 65.34 l -2.001,13.545 z m 97.154,9.2354 q 17.855,0 27.244,11.621 9.3893,11.621 9.3893,31.016 0,12.93 -4.3098,22.55 -4.2329,9.6202 -12.468,15.008 -8.1579,5.3103 -19.933,5.3103 -17.778,0 -27.244,-11.467 -9.4663,-11.544 -9.4663,-31.246 0,-12.622 4.2329,-22.242 4.3098,-9.6972 12.545,-15.084 8.2349,-5.4643 20.01,-5.4643 z m 0,13.391 q -9.3124,0 -14.007,7.1574 -4.6946,7.0805 -4.6946,22.242 0,15.1615 4.6177,22.319 4.6946,7.0805 14.007,7.0805 9.3123,0 13.93,-7.1574 4.6946,-7.1574 4.6946,-22.396 0,-15.008 -4.6177,-22.088 -4.6177,-7.1574 -13.93,-7.1574 z m 91.459,-43.868 v 91.738 q 0,5.6182 3.3863,8.004 3.4633,2.3088 8.9275,2.3088 3.4633,0 6.6187,-0.69266 3.2324,-0.76961 6.2339,-2.001 l 4.3868,12.006 q -3.6172,1.8471 -8.9275,3.2324 -5.2334,1.3853 -12.006,1.3853 -12.237,0 -19.086,-6.9265 -6.7726,-6.9265 -6.7726,-18.856 v -77.5 h -24.551 v -12.699 z m 84.995,-7.1574 q 5.0795,0 8.1579,3.0785 3.1554,3.0785 3.1554,7.6962 0,4.6177 -3.1554,7.7731 -3.0785,3.1554 -8.1579,3.1554 -4.9255,0 -8.081,-3.1554 -3.1554,-3.1554 -3.1554,-7.7731 0,-4.6177 3.1554,-7.6962 3.1554,-3.0785 8.081,-3.0785 z m 12.006,39.789 v 68.65 h 22.088 v 12.622 H 561.535 V 207.98 h 24.32 v -56.028 h -23.55 V 139.33 Z m 115.09,0 -28.63,81.271 H 669.39 L 640.76,139.33 h 18.471 l 20.626,66.957 20.703,-66.957 z m 49.669,-2.1549 q 17.855,0 27.244,11.621 9.3893,11.621 9.3893,31.016 0,12.93 -4.3098,22.55 -4.2329,9.6202 -12.468,15.008 -8.1579,5.3103 -19.933,5.3103 -17.778,0 -27.244,-11.467 -9.4663,-11.544 -9.4663,-31.246 0,-12.622 4.2329,-22.242 4.3098,-9.6972 12.545,-15.084 8.2349,-5.4643 20.01,-5.4643 z m 0,13.391 q -9.3123,0 -14.007,7.1574 -4.6946,7.0805 -4.6946,22.242 0,15.1615 4.6177,22.319 4.6946,7.0805 14.007,7.0805 9.3124,0 13.93,-7.1574 4.6946,-7.1574 4.6946,-22.396 0,-15.008 -4.6177,-22.088 -4.6177,-7.1574 -13.93,-7.1574 z m 56.519,70.035 v -12.314 h 11.929 v -56.721 h -11.929 v -12.237 h 25.089 l 3.1554,18.856 q 4.5407,-10.236 11.236,-15.546 6.7726,-5.3873 17.393,-5.3873 3.6172,0 6.4648,0.61569 2.9245,0.53873 5.7721,1.4623 l -2.9245,29.938 h -12.314 v -16.547 q -8.6197,0.30784 -14.854,6.9265 -6.2339,6.5417 -9.8511,18.471 v 30.169 h 16.393 v 12.314 z m 120.09,-83.426 q 17.855,0 27.244,11.621 9.3893,11.621 9.3893,31.016 0,12.93 -4.3098,22.55 -4.2329,9.6202 -12.468,15.008 -8.1579,5.3103 -19.933,5.3103 -17.778,0 -27.244,-11.467 -9.4663,-11.544 -9.4663,-31.246 0,-12.622 4.2329,-22.242 4.3098,-9.6972 12.545,-15.084 8.2349,-5.4643 20.01,-5.4643 z m 0,13.391 q -9.3124,0 -14.007,7.1574 -4.6946,7.0805 -4.6946,22.242 0,15.1615 4.6177,22.319 4.6946,7.0805 14.007,7.0805 9.3123,0 13.93,-7.1574 4.6946,-7.1574 4.6946,-22.396 0,-15.008 -4.6177,-22.088 -4.6177,-7.1574 -13.93,-7.1574 z"
       stroke-opacity="0.99216"
       stroke-width="9.0045"
       style="paint-order:stroke markers fill"
       aria-label="Folivoro" /></g></svg>
