<?xml version="1.0" encoding="UTF-8"?>
<!-- Created with Inkscape (http://www.inkscape.org/) -->
<svg id="svg1" version="1.1" viewBox="0 0 981.09 236.6" xml:space="preserve" xmlns="http://www.w3.org/2000/svg"><g id="g1" transform="translate(0,-10)" fill="currentColor" stroke-linecap="round" stroke-miterlimit="42.7"><path id="path1" d="m142.54 10-23.814 1.3086-8.8477 11.059-1.9394 20.957 7.4844 66.514-12.984 25.76-14.512-1.0938-13.461-23.66-44.529-6.6289-14.861 12.057-15.074 12.229v65.398h51.412l97.74 52.703 84.406-16.816 22.375-46.725v-73.57l-17.857-42.268-1.3633-12.277-1.748-15.732-11.852-13.586-29.635 2.6426-4.2559 11.818-3.543 9.8398 6.8242 18.875 6.0039 49.445-5.4355 25.646-18.787-2.3066-10.621-55.838-9.084-36.172 2.7129-12.768-2.2305-19.41zm-3.7598 15.396 2.0762 1.2266 1.0879 9.459-2.9277 13.781 9.832 39.154 12.605 66.277 43.574 5.3457 8.8418-41.717-6.5176-53.658-5.5488-15.348 1.6895-4.6914 0.97656-2.7109 12.295-1.0957 3.6504 4.1855 1.2246 11.016 1.6074 14.471 17.521 41.471v67.055l-17.613 36.777-71.609 14.266-96.305-51.928h-40.074v-43.006l9.4629-7.6777 9.6777-7.8496 30.625 4.5586 13.805 24.262 32.676 2.4648 19.588-38.854-7.8184-69.457 1.3789-14.881 1.7695-2.2129z" style="paint-order:stroke markers fill"/><path id="text2" d="m317.48 127.94v33.786h39.943v13.545h-39.943v45.33h-17.855v-106.21h65.34l-2.001 13.545zm97.154 9.2354q17.855 0 27.244 11.621 9.3893 11.621 9.3893 31.016 0 12.93-4.3098 22.55-4.2329 9.6202-12.468 15.008-8.1579 5.3103-19.933 5.3103-17.778 0-27.244-11.467-9.4663-11.544-9.4663-31.246 0-12.622 4.2329-22.242 4.3098-9.6972 12.545-15.084 8.2349-5.4643 20.01-5.4643zm0 13.391q-9.3124 0-14.007 7.1574-4.6946 7.0805-4.6946 22.242t4.6177 22.319q4.6946 7.0805 14.007 7.0805 9.3123 0 13.93-7.1574 4.6946-7.1574 4.6946-22.396 0-15.008-4.6177-22.088-4.6177-7.1574-13.93-7.1574zm91.459-43.868v91.738q0 5.6182 3.3863 8.004 3.4633 2.3088 8.9275 2.3088 3.4633 0 6.6187-0.69266 3.2324-0.76961 6.2339-2.001l4.3868 12.006q-3.6172 1.8471-8.9275 3.2324-5.2334 1.3853-12.006 1.3853-12.237 0-19.086-6.9265-6.7726-6.9265-6.7726-18.856v-77.5h-24.551v-12.699zm84.995-7.1574q5.0795 0 8.1579 3.0785 3.1554 3.0785 3.1554 7.6962t-3.1554 7.7731q-3.0785 3.1554-8.1579 3.1554-4.9255 0-8.081-3.1554-3.1554-3.1554-3.1554-7.7731t3.1554-7.6962q3.1554-3.0785 8.081-3.0785zm12.006 39.789v68.65h22.088v12.622h-63.647v-12.622h24.32v-56.028h-23.55v-12.622zm115.09 0-28.63 81.271h-20.164l-28.63-81.271h18.471l20.626 66.957 20.703-66.957zm49.669-2.1549q17.855 0 27.244 11.621 9.3893 11.621 9.3893 31.016 0 12.93-4.3098 22.55-4.2329 9.6202-12.468 15.008-8.1579 5.3103-19.933 5.3103-17.778 0-27.244-11.467-9.4663-11.544-9.4663-31.246 0-12.622 4.2329-22.242 4.3098-9.6972 12.545-15.084 8.2349-5.4643 20.01-5.4643zm0 13.391q-9.3123 0-14.007 7.1574-4.6946 7.0805-4.6946 22.242t4.6177 22.319q4.6946 7.0805 14.007 7.0805t13.93-7.1574q4.6946-7.1574 4.6946-22.396 0-15.008-4.6177-22.088-4.6177-7.1574-13.93-7.1574zm56.519 70.035v-12.314h11.929v-56.721h-11.929v-12.237h25.089l3.1554 18.856q4.5407-10.236 11.236-15.546 6.7726-5.3873 17.393-5.3873 3.6172 0 6.4648 0.61569 2.9245 0.53873 5.7721 1.4623l-2.9245 29.938h-12.314v-16.547q-8.6197 0.30784-14.854 6.9265-6.2339 6.5417-9.8511 18.471v30.169h16.393v12.314zm120.09-83.426q17.855 0 27.244 11.621 9.3893 11.621 9.3893 31.016 0 12.93-4.3098 22.55-4.2329 9.6202-12.468 15.008-8.1579 5.3103-19.933 5.3103-17.778 0-27.244-11.467-9.4663-11.544-9.4663-31.246 0-12.622 4.2329-22.242 4.3098-9.6972 12.545-15.084 8.2349-5.4643 20.01-5.4643zm0 13.391q-9.3124 0-14.007 7.1574-4.6946 7.0805-4.6946 22.242t4.6177 22.319q4.6946 7.0805 14.007 7.0805 9.3123 0 13.93-7.1574 4.6946-7.1574 4.6946-22.396 0-15.008-4.6177-22.088-4.6177-7.1574-13.93-7.1574z" stroke-opacity=".99216" stroke-width="9.0045" style="paint-order:stroke markers fill" aria-label="Folivoro"/></g></svg>
